<?xml version="1.0" standalone="no"?>
<!DOCTYPE svg PUBLIC "-//W3C//DTD SVG 20010904//EN"
 "http://www.w3.org/TR/2001/REC-SVG-20010904/DTD/svg10.dtd">
<svg version="1.0" xmlns="http://www.w3.org/2000/svg"
 width="512.000000pt" height="512.000000pt" viewBox="0 0 512.000000 512.000000"
 preserveAspectRatio="xMidYMid meet">
<metadata>
Created by potrace 1.14, written by Peter Selinger 2001-2017
</metadata>
<g transform="translate(0.000000,512.000000) scale(0.100000,-0.100000)"
fill="#000000" stroke="none">
<path d="M0 2560 l0 -2560 2560 0 2560 0 0 2560 0 2560 -2560 0 -2560 0 0
-2560z m2905 2496 c459 -68 876 -250 1234 -535 487 -390 821 -972 916 -1601
22 -148 30 -438 16 -590 -26 -267 -102 -558 -209 -799 -51 -113 -170 -331
-181 -331 -3 1 -65 85 -137 188 -71 103 -298 425 -503 715 -205 291 -375 535
-377 542 -5 11 414 619 853 1238 l83 117 -468 0 -467 -1 -221 -370 -222 -370
-213 373 -214 373 -1147 3 c-632 1 -1148 5 -1148 10 0 21 184 233 301 347 208
202 414 346 664 466 279 133 528 201 895 243 74 9 450 -4 545 -18z m-2450
-3884 c-7 -8 -23 16 -98 147 -152 268 -257 578 -302 893 -20 143 -20 554 0
697 35 238 116 507 220 728 47 100 138 263 169 302 8 10 12 -369 14 -1374 1
-764 0 -1391 -3 -1393z m2086 1843 c202 -295 244 -363 235 -376 -6 -9 -157
-215 -336 -458 l-325 -441 -453 0 -453 0 5 258 5 257 533 1 533 1 0 311 0 311
-467 3 c-257 1 -496 4 -532 6 l-66 4 0 244 0 244 537 -2 537 -3 247 -360z
m984 -1443 l301 -457 397 -3 c218 -1 397 -5 397 -8 0 -14 -165 -211 -254 -303
-376 -386 -849 -635 -1393 -733 -114 -20 -159 -23 -418 -23 -259 0 -304 3
-418 23 -531 96 -986 331 -1358 702 -75 74 -170 180 -212 235 l-77 100 1034 3
1034 2 169 238 c94 130 241 340 327 465 87 126 161 225 165 222 3 -3 141 -212
306 -463z"/>
</g>
</svg>
